<svg xmlns="http://www.w3.org/2000/svg" viewBox="0 0 16 16">
    <g fill="currentColor" fill-rule="evenodd">
        <path d="M6.3.75h-.032c-.813 0-1.469 0-2 .043-.546.045-1.026.14-1.47.366a3.75 3.75 0 0 0-1.64 1.639c-.226.444-.32.924-.365 1.47C.75 4.8.75 5.456.75 6.269V6.5a.75.75 0 0 0 1.5 0v-.2c0-.852 0-1.447.038-1.91.037-.453.107-.714.207-.911a2.25 2.25 0 0 1 .984-.984c.197-.1.458-.17.912-.207.462-.037 1.057-.038 1.909-.038h.2a.75.75 0 0 0 0-1.5h-.2Zm0 14.5h-.032c-.813 0-1.469 0-2-.043-.546-.045-1.026-.14-1.47-.366a3.75 3.75 0 0 1-1.64-1.638c-.226-.445-.32-.925-.365-1.471-.043-.531-.043-1.187-.043-2V9.5a.75.75 0 0 1 1.5 0v.2c0 .853 0 1.447.038 1.91.037.453.107.714.207.912.216.423.56.767.984.983.197.1.458.17.912.207.462.037 1.057.038 1.909.038h.2a.75.75 0 0 1 0 1.5h-.2ZM9.732.75H9.5a.75.75 0 0 0 0 1.5h.2c.853 0 1.447 0 1.91.038.453.037.714.107.912.207.423.216.767.56.983.984.1.197.17.458.207.912.037.462.038 1.057.038 1.909v.2a.75.75 0 0 0 1.5 0v-.232c0-.813 0-1.469-.043-2-.045-.546-.14-1.026-.366-1.47a3.75 3.75 0 0 0-1.638-1.64c-.445-.226-.925-.32-1.471-.365C11.2.75 10.545.75 9.732.75ZM9.7 15.25h.032c.813 0 1.469 0 2-.043.546-.045 1.026-.14 1.47-.366a3.75 3.75 0 0 0 1.64-1.638c.226-.445.32-.925.365-1.471.043-.531.043-1.187.043-2V9.5a.75.75 0 0 0-1.5 0v.2c0 .853 0 1.447-.038 1.91-.037.453-.107.714-.207.912-.216.423-.56.767-.984.983-.197.1-.458.17-.912.207-.462.037-1.056.038-1.909.038h-.2a.75.75 0 0 0 0 1.5h.2Z"></path>
        <path d="M4.25 5.05c0-.377 0-.566.117-.683.117-.117.306-.117.683-.117h1.4c.377 0 .566 0 .683.117.117.117.117.306.117.683v1.4c0 .377 0 .566-.117.683-.117.117-.306.117-.683.117h-1.4c-.377 0-.566 0-.683-.117-.117-.117-.117-.306-.117-.683v-1.4Zm0 4.5c0-.377 0-.566.117-.683.117-.117.306-.117.683-.117h1.4c.377 0 .566 0 .683.117.117.117.117.306.117.683v1.4c0 .377 0 .566-.117.683-.117.117-.306.117-.683.117h-1.4c-.377 0-.566 0-.683-.117-.117-.117-.117-.306-.117-.683v-1.4Zm4.617-5.183c-.117.117-.117.306-.117.683v1.4c0 .377 0 .566.117.683.117.117.306.117.683.117h1.4c.377 0 .566 0 .683-.117.117-.117.117-.306.117-.683v-1.4c0-.377 0-.566-.117-.683-.117-.117-.306-.117-.683-.117h-1.4c-.377 0-.566 0-.683.117Zm2.283 7.383c-.189 0-.283 0-.341-.059-.059-.058-.059-.152-.059-.341v-.2c0-.189 0-.283-.059-.341-.058-.059-.152-.059-.341-.059h-.2c-.189 0-.283 0-.341-.059-.059-.058-.059-.152-.059-.341v-.2c0-.189 0-.283-.059-.341-.058-.059-.152-.059-.341-.059h-.2c-.189 0-.283 0-.341-.059-.059-.058-.059-.152-.059-.341v-.2c0-.189 0-.283.059-.341.058-.059.152-.059.341-.059h2.2c.189 0 .283 0 .341.059.059.058.059.152.059.341v2.2c0 .189 0 .283-.059.341-.058.059-.152.059-.341.059h-.2Z"></path>
    </g>
</svg>