<svg xmlns="http://www.w3.org/2000/svg" viewBox="0 0 16 16">
    <path fill="currentColor" fill-rule="evenodd" d="M8 .25h-.042c-1.369 0-2.454 0-3.32.088-.888.09-1.629.28-2.277.713a4.75 4.75 0 0 0-1.31 1.31c-.434.648-.623 1.39-.713 2.277C.25 5.504.25 6.589.25 7.958v.084c0 1.369 0 2.454.088 3.32.09.888.28 1.629.713 2.277.346.519.791.964 1.31 1.31.648.434 1.39.623 2.277.713.866.088 1.951.088 3.32.088h.084c1.369 0 2.454 0 3.32-.088.888-.09 1.629-.28 2.277-.712a4.753 4.753 0 0 0 1.31-1.311c.434-.648.623-1.39.713-2.277.088-.866.088-1.951.088-3.32v-.084c0-1.369 0-2.454-.088-3.32-.09-.888-.28-1.629-.712-2.277a4.751 4.751 0 0 0-1.311-1.31c-.648-.434-1.39-.623-2.277-.713C10.496.25 9.411.25 8.042.25H8Zm2.32 8.535c.156-.21.735-.868 1.486-.4.478.295.88.694 1.31 1.12.164.164.28.35.359.549.234.6.112 1.323-.138 1.918a2.589 2.589 0 0 1-1.583 1.479c-.318.104-.652.149-.984.149h-5.9c-.587 0-1.106-.14-1.532-.403-.267-.165-.314-.545-.116-.791.33-.412.657-.825.986-1.242.628-.797 1.051-1.029 1.522-.826.19.084.382.21.579.343.525.357 1.255.847 2.216.315.658-.369 1.04-1 1.372-1.551l.006-.01.07-.115a6.75 6.75 0 0 1 .347-.535ZM3.8 5.55c0-.965.784-1.75 1.75-1.75.964 0 1.748.785 1.748 1.75S6.514 7.3 5.55 7.3C4.584 7.3 3.8 6.515 3.8 5.55Z"></path>
</svg>