<svg xmlns="http://www.w3.org/2000/svg" viewBox="0 0 16 16">
    <path fill="currentColor" fill-rule="evenodd" d="M8.103.753a1.907 1.907 0 0 0-.206 0c-.71.038-1.168.53-1.491 1.005-.322.473-.655 1.147-1.049 1.945l-.027.054a7.544 7.544 0 0 1-.267.516.396.396 0 0 1-.08.11.396.396 0 0 1-.142.052 7.548 7.548 0 0 1-.574.095l-.06.009c-.881.128-1.625.236-2.174.396-.552.16-1.16.444-1.417 1.108a1.908 1.908 0 0 0-.063.195c-.184.688.143 1.275.495 1.73.35.451.888.976 1.526 1.597l.043.043c.207.201.326.318.408.414.07.082.078.109.079.11l.005.016c0 .001.01.028.001.136a7.54 7.54 0 0 1-.087.574l-.01.06c-.15.877-.278 1.618-.295 2.19-.018.574.063 1.24.616 1.69.053.043.108.083.166.12.598.387 1.256.258 1.798.064.538-.193 1.203-.543 1.991-.957l.054-.029c.255-.134.403-.211.52-.26.1-.041.127-.04.129-.04h.016c.002 0 .03-.001.13.04.116.049.264.126.52.26l.053.029c.788.414 1.453.764 1.991.957.542.194 1.2.323 1.798-.064.058-.037.113-.077.166-.12.553-.45.634-1.116.616-1.69-.017-.572-.145-1.313-.295-2.19l-.01-.06a7.569 7.569 0 0 1-.087-.574.396.396 0 0 1 .001-.136l.002-.006.003-.01c0-.001.008-.028.08-.11a7.51 7.51 0 0 1 .407-.414l.043-.043c.638-.62 1.176-1.146 1.526-1.597.352-.455.679-1.042.495-1.73a1.908 1.908 0 0 0-.063-.195c-.256-.664-.865-.947-1.417-1.108-.549-.16-1.293-.268-2.174-.396l-.06-.009a7.548 7.548 0 0 1-.573-.095.396.396 0 0 1-.13-.043.395.395 0 0 1-.094-.119 7.584 7.584 0 0 1-.267-.516l-.026-.054c-.394-.798-.727-1.472-1.049-1.945-.323-.475-.78-.967-1.491-1.005Z"></path>
</svg>